<?xml version="1.0" encoding="utf-8"?>
<!-- Generator: Adobe Illustrator 25.2.0, SVG Export Plug-In . SVG Version: 6.00 Build 0)  -->
<svg version="1.1" id="Capa_1" xmlns="http://www.w3.org/2000/svg" xmlns:xlink="http://www.w3.org/1999/xlink" x="0px" y="0px"
	 viewBox="0 0 566.93 294.99" style="enable-background:new 0 0 566.93 294.99;" xml:space="preserve">
<style type="text/css">
	.st0{fill:#011638;}
	.st1{fill:#E288DC;}
</style>
<g>
	<g>
		<path class="st0" d="M4.74,131.93c0.5-1.83,0.75-3.82,0.75-5.99V34.92c0-2.16-0.25-4.24-0.75-6.23C3.57,25.36,2,23.69,0,23.69
			v-0.5h18.95v0.5c-1.49,0-2.79,0.96-3.87,2.87c-1.08,1.91-1.62,3.87-1.62,5.86v95.77c0,2,0.54,3.95,1.62,5.86
			c1.08,1.91,2.37,2.87,3.87,2.87v0.5H0v-0.5C2,136.92,3.57,135.26,4.74,131.93z"/>
		<path class="st0" d="M28.44,119.96c-2.33-1-3.99-1.91-4.99-2.74c-0.33,0-0.67-0.13-1-0.37c-0.34-0.25-0.59-0.46-0.75-0.62
			l-0.25-1.5l-1.5-10.22h1l0.75,1.75c2.5,5.99,6.4,10.31,11.72,12.97c2.66,1.16,5.32,1.99,7.98,2.49c1.16,0.17,2.53,0.34,4.12,0.5
			c1.58,0.17,3.45,0.25,5.61,0.25c3.99,0,7.94-0.5,11.85-1.5c3.9-1,7.19-2.49,9.85-4.49c5.99-4.49,8.98-9.81,8.98-15.96
			c0-5.15-2.37-9.23-7.11-12.22c-4.74-2.99-11.93-6.23-21.57-9.73c-10.14-3.66-17.75-7.11-22.82-10.35s-7.61-7.77-7.61-13.59
			c0-6.98,3.9-12.05,11.72-15.21c5.15-2.33,11.14-3.49,17.96-3.49c7.15,0,14.05,1.41,20.7,4.24c1.66,0.67,3.33,1.58,4.99,2.74
			c0.16,0.17,0.46,0.33,0.87,0.5c0.41,0.17,0.7,0.42,0.87,0.75l0.25,1.5l1.99,10.23h-1c-1.16-2.49-2.91-5.32-5.24-8.48
			c-2.33-2.99-5.82-5.36-10.48-7.11c-4.66-1.75-9.31-2.62-13.97-2.62c-5.99,0-11.56,1.21-16.71,3.62c-5.16,2.41-7.73,6.11-7.73,11.1
			c0,3.49,1.91,6.32,5.74,8.48c3.82,2.16,9.73,4.57,17.71,7.23c7.81,2.83,14.01,5.32,18.58,7.48c4.57,2.16,8.52,5.11,11.85,8.85
			c3.33,3.74,4.99,8.35,4.99,13.84c0,2.99-0.42,5.57-1.25,7.73c-1.83,5.16-5.74,9.48-11.72,12.97c-5.82,3.49-13.39,5.24-22.7,5.24
			C41.99,124.2,34.76,122.79,28.44,119.96z"/>
		<path class="st0" d="M155.27,121.08c1.25,1.75,2.37,2.62,3.37,2.62v0.5h-16.21v-0.5c0.83,0,1.49-0.33,1.99-1
			c0.5-0.66,0.75-1.58,0.75-2.74c0-1.33-0.17-2.49-0.5-3.49c-1.16-4.15-2.66-8.48-4.49-12.97c-3.49-0.16-6.53-0.71-9.1-1.62
			c-2.58-0.91-5.53-2.2-8.86-3.87c-3.66-1.83-6.94-3.2-9.85-4.12c-2.91-0.91-6.61-1.37-11.1-1.37c-1.33,0-3.49,0.25-6.48,0.75
			c-3.16,8.32-5.74,15.71-7.73,22.2c-0.5,1.66-0.75,3.16-0.75,4.49c0,2.49,0.75,3.74,2.25,3.74v0.5h-9.73v-0.5
			c2.16,0,4.24-2.74,6.24-8.23c3.49-10.47,5.99-17.71,7.48-21.7l0.5-1.75c6.15-16.29,13.47-35,21.95-56.12h8.23
			c14.96,38.74,24.69,65.18,29.18,79.31C153.07,117.39,154.03,119.34,155.27,121.08z M131.46,100.13c2.33,0.92,5.07,1.46,8.23,1.62
			c-5.66-15.79-13.55-36.66-23.69-62.6c-7.98,19.79-14.8,37.25-20.45,52.37c1.5-0.5,3.41-0.75,5.74-0.75c4.65,0,8.52,0.5,11.6,1.5
			c3.07,1,6.61,2.41,10.6,4.24C126.47,98.01,129.13,99.22,131.46,100.13z"/>
		<path class="st0" d="M162.34,121.21c1.16-1.83,1.75-4.65,1.75-8.48V47.39c0-3.32-0.54-5.99-1.62-7.98c-1.08-2-2.37-2.99-3.87-2.99
			v-0.5h13.47c12.3,0,20.86,0.5,25.69,1.5c4.82,1.17,8.93,3.29,12.34,6.36c3.4,3.08,5.11,7.28,5.11,12.59
			c0,6.48-2.08,11.22-6.23,14.22c-4.16,2.99-7.36,4.78-9.6,5.36c-2.25,0.58-3.45,0.87-3.62,0.87c3.49,0,7.48,0.67,11.97,2
			c4.49,1.33,8.39,3.66,11.72,6.98c3.33,3.33,4.99,7.73,4.99,13.22c0,7.15-2.33,12.72-6.98,16.71c-4.66,3.99-10.22,6.48-16.71,7.48
			c-3.99,0.67-13.47,1-28.43,1h-13.72v-0.5C159.92,123.7,161.17,122.87,162.34,121.21z M196.5,73.32
			c6.98-2.99,10.48-8.64,10.48-16.96c0-4.32-0.83-7.77-2.49-10.35c-1.66-2.58-4.08-4.61-7.23-6.11c-2.5-1-6.86-1.66-13.09-2
			c-6.23-0.33-10.27-0.33-12.1,0v38.16h8.23C186.78,76.07,192.18,75.15,196.5,73.32z M199.49,120.71c6.15-1.5,10.52-3.99,13.09-7.48
			c2.58-3.49,3.87-8.14,3.87-13.97c-0.17-10.64-6.57-17.37-19.2-20.2c-3.49-0.66-8.32-1-14.47-1h-10.72v39.65
			c0,1.83,0.62,3.03,1.87,3.62c1.25,0.58,2.95,0.96,5.11,1.12C188.52,122.46,195.34,121.87,199.49,120.71z"/>
		<path class="st0" d="M233.29,120.71c1.08-2,1.62-4.65,1.62-7.98V47.39c0-3.32-0.54-5.99-1.62-7.98c-1.08-2-2.37-2.99-3.87-2.99
			v-0.5h59.11l2,9.23h-1.25c-1.5-3.16-4.45-5.19-8.86-6.11c-4.41-0.91-10.6-1.37-18.58-1.37h-9.48h-9.48v41.9h24.19
			c2.99,0,5.53-0.58,7.61-1.75c2.08-1.16,3.12-2.33,3.12-3.49h1v12.72h-1v-0.25c0-1.33-1.04-2.58-3.12-3.74
			c-2.08-1.16-4.61-1.75-7.61-1.75h-24.19v41.15h10.72h10.23c8.14,0,14.38-0.46,18.7-1.37c4.32-0.91,7.4-2.87,9.23-5.86h1
			l-1.75,8.98h-61.6v-0.5C230.92,123.7,232.2,122.7,233.29,120.71z"/>
		<path class="st0" d="M480.86,161.61c-4.16,0-8.4-0.5-12.72-1.5c-6.82-1.5-13.09-5.28-18.83-11.35
			c-5.74-6.07-11.19-15.75-16.34-29.05c-8.48-22.61-17.71-46.8-27.68-72.58c-3.99-10.31-7.9-18.49-11.72-24.57
			c-3.83-6.07-8.27-10.76-13.34-14.09c-5.07-3.32-11.43-5.74-19.08-7.23C357.66,0.42,353.33,0,348.18,0
			c-7.14,0-13.96,1.08-20.45,3.24v0.5c6.98-2.16,13.47-3.24,19.45-3.24c4.32,0,8.56,0.5,12.72,1.5c7.48,1.66,13.63,5.03,18.46,10.1
			c4.82,5.07,9.48,13.09,13.97,24.07c-1.83,4.16-4.74,11.39-8.73,21.7c-3.99,10.31-8.32,21.7-12.97,34.17l-0.5,1.75
			c-2.33,6.22-4.41,11.98-6.24,17.3c-1.25,3.64-3.75,6.74-7.1,8.63c-1.12,0.63-2.29,1.15-3.42,1.39c-4.32,0.92-10.56,1.37-18.7,1.37
			h-10.23h-10.72l0-76.87c0-2.22,0.47-4.47,1.59-6.39c1.09-1.86,2.38-2.79,3.89-2.79v-0.5h-18.95v0.5c2,0,3.57,1.66,4.74,4.99
			c0.5,1.66,0.75,3.66,0.75,5.99v60.11c0,0.67,0,1.87,0,3.62s-0.09,3.49-0.25,5.24c-0.17,1.75-0.67,3.37-1.49,4.86
			c-1.16,1.66-2.41,2.49-3.74,2.49v0.5h56.16h5.44c0,0,2.29-7.06,2.79-8.73c2-6.48,4.57-13.88,7.73-22.2
			c2.99-0.5,5.15-0.75,6.48-0.75c4.32,0,7.98,0.46,10.97,1.37c2.99,0.92,6.32,2.29,9.98,4.12c3.32,1.66,6.27,2.95,8.85,3.87
			c2.58,0.92,5.61,1.46,9.1,1.62h0.25l3.74,9.73c5.82,15.3,12.01,26.56,18.58,33.79c6.57,7.23,15.42,11.85,26.56,13.84
			c4.65,0.83,9.06,1.25,13.22,1.25c6.98,0,13.72-1.08,20.2-3.24v-0.5C493.33,160.53,486.85,161.61,480.86,161.61z M417.02,101.76
			c-3.16-0.16-5.9-0.71-8.23-1.62c-2.33-0.91-4.99-2.12-7.98-3.62c-4.16-2-7.69-3.45-10.6-4.36c-2.91-0.91-6.69-1.37-11.35-1.37
			c-2.33,0-4.24,0.25-5.73,0.75c5.49-15.13,12.22-32.58,20.2-52.37v-0.25l0.75,1.75c8.64,21.95,16.46,42.32,23.44,61.1H417.02z"/>
		<path class="st0" d="M117.07,203.71c2.33-0.83,4.65-1.25,6.98-1.25v0.5c-3.99,0-8.07,1.5-12.22,4.49
			c-2.49,1.83-4.03,4.28-4.61,7.36c-0.58,3.08-0.87,7.94-0.87,14.59l-0.5,32.42c0,4.82-1.37,9.81-4.11,14.96
			c-2.74,5.15-6.24,9.48-10.48,12.97c-4.24,3.49-8.44,5.24-12.6,5.24v-0.5c5.65,0,10.27-2.91,13.84-8.73
			c3.57-5.82,5.36-12.63,5.36-20.45l0.25-16.96c-1.49,0.67-4.16,1.58-7.98,2.74c-5.33,1.33-10.65,1.99-15.96,1.99
			c-6.32,0-12.22-1-17.71-2.99c-8.48-2.99-15.3-8.31-20.45-15.96c-5.82-7.98-8.73-18.87-8.73-32.67c0-8.64,2-16.83,5.99-24.57
			c3.99-7.73,9.56-13.92,16.71-18.58c7.15-4.65,15.13-6.98,23.94-6.98c6.48,0,12.3,0.79,17.46,2.37c5.15,1.58,9.23,3.45,12.22,5.61
			l2.5,11.97h-1.25c-1-2.16-2.29-4.4-3.87-6.73c-1.58-2.33-3.12-3.99-4.61-4.99c-6.15-4.65-13.3-6.98-21.45-6.98
			c-2.49,0-4.33,0.09-5.49,0.25c-7.48,0.67-14.39,4.08-20.7,10.22c-2.66,2.66-5.07,6.11-7.23,10.35c-2.16,4.24-3.74,8.36-4.74,12.35
			c-1.33,5.32-1.99,10.64-1.99,15.96c0,8.15,1.41,15.96,4.24,23.44c2.49,6.82,6.36,12.64,11.6,17.46
			c5.24,4.82,11.26,7.73,18.08,8.73c2.66,0.33,4.9,0.5,6.74,0.5c4.65,0,8.73-0.5,12.22-1.5c2.99-1,6.48-3.16,10.48-6.48v-10.97
			c0.16-11.3,4.57-20.03,13.22-26.19C112.84,205.54,114.74,204.54,117.07,203.71z"/>
		<path class="st0" d="M128.79,247.6c0.5-1.83,0.75-3.82,0.75-5.99v-65.34c0-2.33-0.25-4.32-0.75-5.99
			c-1.16-3.32-2.74-4.99-4.74-4.99v-0.5h18.95v0.5c-1.49,0-2.79,0.92-3.87,2.74c-1.08,1.83-1.62,3.83-1.62,5.99v69.83
			c0,2.16,0.54,4.16,1.62,5.99c1.08,1.83,2.37,2.74,3.87,2.74v0.5h-18.95v-0.5C126.05,252.59,127.63,250.93,128.79,247.6z"/>
		<path class="st0" d="M296.39,249.8c-1.25-1.75-2.21-3.7-2.87-5.86c-4.49-14.13-14.22-40.57-29.18-79.31h-8.23
			c-8.48,21.12-15.8,39.82-21.95,56.12l-0.5,1.75c-1.49,3.99-3.99,11.22-7.48,21.7c-1.39,3.82-3.09,7.02-5.61,7.02
			c-1.83,0-2.79-1.75-4.36-3.49c-1.58-1.75-2.71-2.95-3.37-3.62l-14.47-15.71c-2.83-3.16-6.07-5.4-9.73-6.73l1.49-0.25l2.74-0.25
			c6.48-1.33,12.01-4.36,16.58-9.1c4.57-4.74,6.86-11.35,6.86-19.83c0-9.98-4.08-17.04-12.22-21.2c-8.15-4.15-18.87-6.23-32.17-6.23
			h-18.95v0.5c2,0,3.57,1.66,4.74,4.99c0.5,1.16,0.75,3.16,0.75,5.99v65.34c0,3.33-0.59,6.15-1.75,8.48
			c-1.16,1.66-2.41,2.49-3.74,2.49v0.5h18.95v-0.5h-0.5c-0.84-0.33-1.58-0.83-2.25-1.5c-0.84-0.66-1.5-1.7-2-3.12
			c-0.5-1.41-0.75-2.78-0.75-4.12v-21.45c4.82,0,8.56-0.08,11.22-0.25c3.49,0.5,7.31,2.91,11.47,7.23l14.72,15.71
			c2.83,2.99,5.69,5.11,8.6,6.36c2.31,0.99,4.88,1.46,7.67,1.46h9.54v-0.5c-1.5,0-2.25-1.25-2.25-3.74c0-1.33,0.25-2.82,0.75-4.49
			c1.99-6.48,4.57-13.88,7.73-22.2c2.99-0.5,5.15-0.75,6.48-0.75c4.49,0,8.19,0.46,11.1,1.37c2.91,0.92,6.19,2.29,9.85,4.12
			c3.33,1.66,6.27,2.95,8.86,3.87c2.58,0.92,5.61,1.46,9.1,1.62c1.83,4.49,3.32,8.81,4.49,12.97c0.33,1,0.5,2.16,0.5,3.49
			c0,1.16-0.25,2.08-0.75,2.74c-0.5,0.67-1.16,1-1.99,1v0.5h16.21v-0.5C298.76,252.42,297.64,251.55,296.39,249.8z M178.67,220.67
			c-4.33,0.17-8.4,0.17-12.22,0v-54.12h8.23c5.99,0,10.81,0.5,14.46,1.5c5.65,1.16,10.27,3.78,13.84,7.86
			c3.57,4.08,5.36,9.6,5.36,16.59c0,7.15-1.25,12.84-3.74,17.08c-2.5,4.24-6.82,7.27-12.97,9.1l-3.24,0.75
			C186.4,219.92,183.16,220.33,178.67,220.67z M272.57,228.85c-2.33-0.91-4.99-2.12-7.98-3.62c-3.99-1.83-7.53-3.24-10.6-4.24
			c-3.08-1-6.94-1.5-11.6-1.5c-2.33,0-4.24,0.25-5.74,0.75c5.65-15.13,12.47-32.58,20.45-52.37c10.14,25.94,18.04,46.81,23.69,62.6
			C277.65,230.31,274.9,229.77,272.57,228.85z"/>
		<path class="st0" d="M303.5,249.95c0.83-1.5,1.33-3.12,1.49-4.86c0.16-1.75,0.25-3.49,0.25-5.24s0-2.95,0-3.62v-60.11
			c0-2.33-0.25-4.32-0.75-5.99c-1.16-3.32-2.74-4.99-4.74-4.99v-0.5h18.95v0.5c-1.49,0-2.79,0.92-3.87,2.74
			c-1.08,1.83-1.62,3.83-1.62,5.99v77.32h10.72h10.23c8.14,0,14.38-0.46,18.7-1.37c4.32-0.91,7.4-2.87,9.23-5.86h1l-1.75,8.98h-61.6
			v-0.5C301.09,252.45,302.34,251.62,303.5,249.95z"/>
		<path class="st0" d="M374.33,249.95c1.33-2.16,1.99-4.99,1.99-8.48v-65.34c0-3.32-0.54-5.99-1.62-7.98
			c-1.08-2-2.46-2.99-4.12-2.99v-0.5h34.67c7.98,0,15.34,2,22.07,5.99c6.73,3.99,12.1,9.35,16.08,16.09
			c3.99,6.73,5.99,14.09,5.99,22.07s-2,15.34-5.99,22.07c-3.99,6.73-9.4,12.1-16.21,16.09c-6.82,3.99-14.22,5.99-22.2,5.99h-34.42
			v-0.5C371.92,252.45,373.17,251.62,374.33,249.95z M421.34,245.22c6.07-3.99,10.93-9.23,14.59-15.71
			c3.66-6.48,5.49-13.38,5.49-20.7c0-7.31-1.83-14.22-5.49-20.7c-3.66-6.48-8.48-11.72-14.47-15.71c-5.99-3.99-12.39-5.99-19.2-5.99
			l-17.96,0.25v84.55h17.7C408.83,251.2,415.27,249.21,421.34,245.22z"/>
		<path class="st0" d="M478.95,246.96c-6.73-3.99-12.1-9.35-16.09-16.09c-3.99-6.73-5.99-14.09-5.99-22.07s2-15.34,5.99-22.07
			c3.99-6.73,9.35-12.1,16.09-16.09c6.73-3.99,14.09-5.99,22.07-5.99c7.98,0,15.34,2,22.07,5.99c6.73,3.99,12.09,9.35,16.08,16.09
			c3.99,6.73,5.99,14.09,5.99,22.07s-1.99,15.34-5.99,22.07c-3.99,6.73-9.35,12.1-16.08,16.09c-6.74,3.99-14.09,5.99-22.07,5.99
			C493.04,252.95,485.68,250.95,478.95,246.96z M518.98,245.47c5.49-3.82,9.85-8.98,13.09-15.46c3.24-6.48,4.86-13.55,4.86-21.2
			c0-7.65-1.62-14.71-4.86-21.2c-3.24-6.48-7.61-11.64-13.09-15.46c-5.49-3.82-11.47-5.74-17.96-5.74c-6.48,0-12.47,1.91-17.96,5.74
			c-5.49,3.83-9.85,8.98-13.09,15.46c-3.24,6.48-4.86,13.55-4.86,21.2c0,7.65,1.62,14.72,4.86,21.2
			c3.24,6.48,7.61,11.64,13.09,15.46c5.49,3.83,11.47,5.74,17.96,5.74C507.51,251.2,513.49,249.29,518.98,245.47z"/>
	</g>
	<path class="st1" d="M514.83,25.21c-10.52,0-19.04,8.53-19.04,19.04c0-10.51-8.53-19.04-19.05-19.04
		c10.52,0,19.05-8.53,19.05-19.04C495.79,16.68,504.31,25.21,514.83,25.21z"/>
	<path class="st1" d="M566.09,79.84c-13.5,0-24.44,10.94-24.44,24.44c0-13.5-10.94-24.44-24.45-24.44
		c13.5,0,24.45-10.94,24.45-24.44C541.65,68.89,552.59,79.84,566.09,79.84z"/>
	<path class="st1" d="M515.35,92.96c-0.28-2.95-1.7-5.73-3.64-7.93c-0.94-1.07-2.03-1.94-3.17-2.79c-0.81-0.6-2.7-2.38-3.73-2.38
		c0,0-0.26,0-0.26,0c0.95,0,2.94-1.62,3.78-2.17c1.36-0.91,2.66-1.95,3.65-3.26c2.01-2.64,3.17-6.77,3.04-10.05
		c-0.22-5.55-3.97-9.16-4.23-9.37c-5.94-4.71-13.53-3.38-19.63,0.34c-0.01,0.05-0.04,0.06-0.09,0.05c-0.6,0.28-0.39-0.16-0.38-0.43
		c-0.02-2.62-0.14-5.22-0.95-7.75c-2.61-8.21-10.82-12.19-18.68-8.74c-3.05,1.34-5.38,3.94-6.72,6.95c-0.63,1.4-1.05,2.9-1.29,4.41
		c-0.12,0.78-0.89,5.51-0.16,5.94c-0.96-0.56-1.76-1.08-2.6-1.52c-4.33-2.26-9.8-3.13-14.41-1.19c-5.43,2.29-8.29,7.99-7.75,13.7
		c0.41,4.34,2.99,7.72,6.29,10.35c1.29,1.04,2.69,1.9,4.25,2.75c0,0,0.26,0,0.26,0c-0.97,0-2.98,1.7-3.8,2.29
		c-1.32,0.93-2.56,1.99-3.57,3.26c-2.12,2.65-3.23,6.57-3.1,9.94c0.22,5.55,3.97,9.16,4.23,9.37c2.71,2.15,6.17,3.34,9.64,3.12
		c1.75-0.11,3.48-0.49,5.13-1.08c0.85-0.3,4.59-1.48,4.86-2.38c0.01-0.05,0.04-0.06,0.09-0.05c0.6-0.28,0.39,0.16,0.38,0.43
		c0.02,2.62,0.14,5.22,0.95,7.75c1.14,3.6,3.56,6.78,6.94,8.53c6.8,3.53,15.23,0.17,18.35-6.59c0.66-1.43,1.13-2.96,1.39-4.51
		c0.13-0.78,0.9-5.56,0.17-5.99c0.96,0.56,1.76,1.08,2.6,1.52c4.29,2.24,8.74,3.17,13.48,1.53
		C512.63,104.95,515.93,99.07,515.35,92.96z M490.71,55.56c0.02,0,0.04,0.04,0.07,0.06c-0.02,0.02-0.05,0.04-0.07,0.06
		c-0.02-0.02-0.04-0.04-0.06-0.06C490.67,55.6,490.69,55.56,490.71,55.56z M462.77,104.15c-0.02,0-0.04-0.04-0.07-0.06
		c0.02-0.02,0.05-0.04,0.07-0.06c0.02,0.02,0.04,0.04,0.06,0.06C462.82,104.11,462.79,104.15,462.77,104.15z M507.67,97.54
		c-1.39,2.35-3.58,3.54-6.51,3.26c-3.98-0.39-6.97-2.67-9.7-5.34c-2.96-2.89-5.28-6.27-7.32-9.85c-0.22-0.39-0.59-0.63-0.79-1.01
		c-0.76-0.45-1.53-0.83-2.45-0.79c-2.67,0.13-4.18,2.95-2.82,5.33c1.86,3.25,3.49,6.6,4.55,10.2c0.92,3.12,1.4,6.28,0.89,9.56
		c-0.62,3.98-3.57,6.76-7.17,6.54c-2.28-0.14-3.93-1.31-5.09-3.3c-1.09-1.87-1.37-3.84-1.33-5.96c0.09-5.09,1.63-9.74,4.04-14.16
		c0.59-1.08,1.22-2.16,1.67-3.29c0.74-1.84,0.32-3.57-1.63-4.56c-1.6-0.81-3.59-0.23-4.55,1.4c-1.44,2.44-2.97,4.81-4.76,7
		c-0.25,0.31-0.54,0.59-0.82,0.88c-2.29,2.78-4.92,5.14-8.29,6.53c-1.34,0.55-2.75,0.97-4.25,0.81c-5.4-0.33-7.68-5.66-5.12-9.76
		c1.37-2.19,3.28-3.78,5.74-4.64c0.72-0.67,1.67-0.84,2.54-1.13c3.18-1.06,6.45-1.61,9.8-1.7c0.45-0.12,0.9-0.16,1.36-0.07
		c0.17-0.01,0.35-0.01,0.52-0.02c0.7-0.18,1.41-0.07,2.11-0.1c1.88-0.08,3.3-1.51,3.37-3.36c0-0.05-0.01-0.09-0.01-0.14h-0.01
		c0.03-1.12-0.6-2.21-1.87-3.16c-0.73-0.3-1.49-0.35-2.27-0.36c-4.76-0.07-9.47-0.5-13.98-2.19c-2.55-0.96-4.89-2.25-6.66-4.38
		c-1.93-2.32-2.38-5.34-1.04-7.59c1.39-2.35,3.58-3.54,6.51-3.26c3.98,0.39,6.97,2.67,9.7,5.34c2.96,2.89,5.28,6.27,7.32,9.85
		c0.22,0.39,0.59,0.63,0.79,1.01c0.76,0.45,1.53,0.83,2.45,0.79c2.67-0.13,4.18-2.95,2.82-5.33c-1.86-3.25-3.49-6.6-4.55-10.2
		c-0.92-3.12-1.4-6.28-0.89-9.56c0.62-3.98,3.57-6.76,7.17-6.54c2.28,0.14,3.93,1.31,5.09,3.3c1.09,1.87,1.37,3.84,1.33,5.96
		c-0.09,5.09-1.63,9.74-4.04,14.16c-0.59,1.08-1.22,2.16-1.67,3.29c-0.74,1.84-0.32,3.57,1.63,4.56c1.6,0.81,3.59,0.23,4.55-1.4
		c1.44-2.44,2.97-4.81,4.76-7c0.25-0.31,0.54-0.59,0.82-0.88c2.29-2.78,4.92-5.14,8.29-6.53c1.34-0.55,2.75-0.97,4.25-0.81
		c5.4,0.33,7.68,5.66,5.12,9.76c-1.37,2.19-3.28,3.78-5.74,4.64c-0.72,0.67-1.67,0.84-2.54,1.13c-3.18,1.06-6.45,1.61-9.8,1.7
		c-0.45,0.12-0.9,0.16-1.36,0.07c-0.17,0.01-0.35,0.01-0.52,0.02c-0.7,0.18-1.41,0.07-2.11,0.1c-1.88,0.08-3.3,1.51-3.37,3.36
		c0,0.05,0.01,0.09,0.01,0.14h0.01c-0.03,1.12,0.6,2.21,1.87,3.16c0.73,0.3,1.49,0.35,2.27,0.36c4.76,0.07,9.47,0.5,13.98,2.19
		c2.55,0.96,4.89,2.25,6.66,4.38C508.55,92.27,509,95.29,507.67,97.54z"/>
</g>
</svg>
